<?xml version="1.0" encoding="UTF-8"?>
<!-- Created with Inkscape (http://www.inkscape.org/) -->
<svg width="185" height="42.938" version="1.1" viewBox="0 0 48.948 11.361" xmlns="http://www.w3.org/2000/svg">
 <path transform="translate(-137.01 3.1303)" d="m140.6 5.0205h0.99219v-3.1882l1.3758 2.0836h0.0265l1.3891-2.1034v3.2081h1.012v-4.8154h-1.0914l-1.3097 2.0836-1.3031-2.0836h-1.0914zm7.6464 0.079375c0.66808 0 1.1576-0.25797 1.5015-0.6813l-0.57547-0.50932c-0.29104 0.2712-0.54239 0.38365-0.91281 0.38365-0.48286 0-0.82682-0.25797-0.92604-0.76068h2.5863c7e-3 -0.099219 0.0132-0.18521 0.0132-0.26458 0-1.0385-0.56885-1.991-1.7859-1.991-1.0649 0-1.8124 0.8599-1.8124 1.9116v0.013229c0 1.1245 0.82021 1.8984 1.9116 1.8984zm-0.92604-2.196c0.0794-0.50271 0.37703-0.82021 0.82682-0.82021 0.46964 0 0.73422 0.33734 0.80698 0.82021zm4.9676 2.1894c0.55562 0 0.90619-0.26458 1.1642-0.61516v0.5424h1.0054v-5.0205h-1.0054v1.8389c-0.25797-0.31089-0.60192-0.56224-1.1642-0.56224-0.87313 0-1.6801 0.6813-1.6801 1.8984v0.013229c0 1.2303 0.82021 1.905 1.6801 1.905zm0.25135-0.8599c-0.50271 0-0.92604-0.41672-0.92604-1.0451v-0.013229c0-0.64161 0.42333-1.0451 0.92604-1.0451s0.92604 0.41672 0.92604 1.0451v0.013229c0 0.62839-0.42333 1.0451-0.92604 1.0451zm2.9435-3.3271h1.0583v-0.89958h-1.0583zm0.0331 4.1143h0.9988v-3.6777h-0.9988zm2.0571 0h1.0054v-2.0571c0-0.50271 0.25797-0.78052 0.66146-0.78052s0.635 0.2712 0.635 0.78052v2.0571h1.0054v-2.0571c0-0.50932 0.25797-0.78052 0.66146-0.78052 0.41672 0 0.635 0.2712 0.635 0.78052v2.0571h1.0054v-2.3812c0-0.89958-0.46303-1.3626-1.2502-1.3626-0.50932 0-0.89958 0.20505-1.2171 0.59531-0.19183-0.37703-0.54901-0.59531-1.0451-0.59531-0.52255 0-0.86651 0.28443-1.0914 0.59531v-0.52917h-1.0054zm8.3211 0.079375c0.66808 0 1.1576-0.25797 1.5015-0.6813l-0.57547-0.50932c-0.29104 0.2712-0.54239 0.38365-0.91281 0.38365-0.48286 0-0.82682-0.25797-0.92604-0.76068h2.5863c7e-3 -0.099219 0.0132-0.18521 0.0132-0.26458 0-1.0385-0.56885-1.991-1.7859-1.991-1.0649 0-1.8124 0.8599-1.8124 1.9116v0.013229c0 1.1245 0.82021 1.8984 1.9116 1.8984zm-0.92604-2.196c0.0794-0.50271 0.37703-0.82021 0.82682-0.82021 0.46964 0 0.73422 0.33734 0.80698 0.82021zm3.4528 2.1167h1.0054v-2.0571c0-0.50932 0.26459-0.78052 0.68792-0.78052s0.66146 0.2712 0.66146 0.78052v2.0571h1.0054v-2.3746c0-0.85328-0.46302-1.3692-1.2634-1.3692-0.52255 0-0.86651 0.28443-1.0914 0.59531v-0.52917h-1.0054zm5.5761 0.059531c0.34396 0 0.5887-0.079375 0.80698-0.20505v-0.80698c-0.15875 0.08599-0.33073 0.12568-0.51594 0.12568-0.23812 0-0.35719-0.12568-0.35719-0.37703v-1.614h0.88636v-0.8599h-0.88636v-0.9525h-1.0054v0.9525h-0.44318v0.8599h0.44318v1.7793c0 0.84667 0.43656 1.098 1.0716 1.098zm3.347 0.019844c1.1443 0 1.991-0.85328 1.991-1.9116v-0.013229c0-1.0517-0.84005-1.8984-1.9712-1.8984-1.1443 0-1.991 0.8599-1.991 1.9116v0.013229c0 1.0583 0.84005 1.8984 1.9712 1.8984zm0.0198-0.8599c-0.59531 0-0.9988-0.48948-0.9988-1.0517v-0.013229c0-0.56224 0.37042-1.0319 0.97896-1.0319 0.59531 0 0.9988 0.48286 0.9988 1.0451v0.013229c0 0.56224-0.37042 1.0385-0.97896 1.0385zm2.798 0.78052h1.0054v-1.3692c0-0.89958 0.43657-1.3229 1.1443-1.3229h0.0529v-1.0517c-0.62838-0.026458-0.97895 0.30427-1.1972 0.82682v-0.76068h-1.0054z" fill="#1a1a1a" stroke-width="0" aria-label="Medimentor"/>
</svg>
