<svg xmlns="http://www.w3.org/2000/svg" width="24" height="24" fill="#000000" viewBox="0 -960 960 960" xmlns:v="https://vecta.io/nano"><path d="M660-847c62.667 0 115.03 20.969 157.03 62.969s62.969 94.365 62.969 157.03c0 26.934-3.982 53.313-11.953 79.219h-210.31v97.656l-74.141-112.34h-1.484l-74.844 113.44v-229.53h-58.828l-70.234 112.34-70.625-112.34h-58.75v130.78H91.95c-7.971-25.906-11.953-52.285-11.953-79.219 0-62.667 20.969-115.03 62.969-157.03s94.365-62.969 157.03-62.969c34.667 0 67.651 7.287 98.984 21.953s58.349 35.365 81.016 62.031c22.667-26.667 49.682-47.365 81.016-62.031s64.318-21.953 98.984-21.953zM303.36-591.92l74.844 113.44h1.406l73.125-110.7v226.72h58.828l70.547-112.27 70.234 112.27h58.828v-130.7h133.28c-9.323 16.785-20.828 34.315-34.453 52.656-26 35-61 74.516-105 118.52s-99.698 96.286-167.03 156.95L480-113.003l-57.969-52.031c-67.333-60.667-123.03-112.95-167.03-156.95s-79-83.516-105-118.52c-13.625-18.341-25.13-35.871-34.453-52.656h187.81z"/></svg>