<?xml version="1.0" encoding="UTF-8" standalone="no"?>
<svg
   width="158"
   height="24"
   fill="#000000"
   viewBox="0 -960 6320 960"
   version="1.1"
   id="svg1"
   sodipodi:docname="logotext_primary.svg"
   inkscape:version="1.4.2 (2aeb623e1d, 2025-05-12)"
   inkscape:export-filename="../65674482/logotext_primary.png"
   inkscape:export-xdpi="400"
   inkscape:export-ydpi="400"
   xmlns:inkscape="http://www.inkscape.org/namespaces/inkscape"
   xmlns:sodipodi="http://sodipodi.sourceforge.net/DTD/sodipodi-0.dtd"
   xmlns="http://www.w3.org/2000/svg"
   xmlns:svg="http://www.w3.org/2000/svg">
  <defs
     id="defs1" />
  <sodipodi:namedview
     id="namedview1"
     pagecolor="#ffffff"
     bordercolor="#000000"
     borderopacity="0.25"
     inkscape:showpageshadow="2"
     inkscape:pageopacity="0.0"
     inkscape:pagecheckerboard="0"
     inkscape:deskcolor="#d1d1d1"
     inkscape:zoom="2.020535"
     inkscape:cx="89.332776"
     inkscape:cy="-43.800281"
     inkscape:window-width="1440"
     inkscape:window-height="863"
     inkscape:window-x="0"
     inkscape:window-y="0"
     inkscape:window-maximized="1"
     inkscape:current-layer="svg1" />
  <path
     d="M2674.375-800v222.422c-31.2-37.6-72.781-68.047-140.781-68.047-105.6 0-203.203 82.409-203.203 229.609v1.641c0 148.8 99.203 230.391 203.203 230.391 67.2 0 109.581-32.053 140.781-74.453v65.625h121.641V-800h-121.641zm245.625.781v108.828h127.969v-108.828H2920zm-1800 23.984v582.422h120v-385.625l166.406 252.031h3.203l167.969-254.375v387.969H1700v-582.422h-132.031L1409.61-523.204l-157.578-252.031H1120zm3909.609 22.422v115.234h-53.594v103.984h53.594v215.156c0 102.4 52.809 132.813 129.609 132.813 41.6 0 71.178-9.566 97.578-24.766v-97.578c-19.2 10.4-40.022 15.156-62.422 15.156-28.8 0-43.203-15.225-43.203-45.625v-195.156h107.188v-103.984h-107.187v-115.234H5029.61zM2032.813-645.625c-128.8 0-219.219 104.05-219.219 231.25v1.563c0 136 99.172 229.609 231.172 229.609 80.8 0 140.041-31.222 181.641-82.422l-69.609-61.562c-35.2 32.8-65.591 46.406-110.391 46.406-58.4 0-100.031-31.231-112.031-92.031h312.813c.8-12 1.641-22.353 1.641-31.953 0-125.6-68.816-240.859-216.016-240.859zm1393.594 0c-63.2 0-104.831 34.431-132.031 72.031v-63.984h-121.562v444.766h121.563v-248.75c0-60.8 31.2-94.453 80-94.453s76.797 32.853 76.797 94.453v248.75h121.641v-248.75c0-61.6 31.2-94.453 80-94.453 50.4 0 76.797 32.853 76.797 94.453v248.75h121.563v-287.969c0-108.8-55.972-164.844-151.172-164.844-61.6 0-108.787 24.831-147.187 72.031-23.2-45.6-66.406-72.031-126.406-72.031zm740.781 0c-128.8 0-219.219 104.05-219.219 231.25v1.563c0 136 99.25 229.609 231.25 229.609 80.8 0 139.962-31.222 181.562-82.422l-69.609-61.562c-35.2 32.8-65.591 46.406-110.391 46.406-58.4 0-99.953-31.231-111.953-92.031h312.734c.8-12 1.641-22.353 1.641-31.953 0-125.6-68.816-240.859-216.016-240.859zm571.172 0c-63.2 0-104.753 34.431-131.953 72.031v-63.984h-121.641v444.766h121.641v-248.75c0-61.6 32.003-94.453 83.203-94.453s80 32.853 80 94.453v248.75h121.563V-480c0-103.2-56.013-165.625-152.812-165.625zm828.047 0c-138.4 0-240.781 104.05-240.781 231.25v1.563c0 128 101.559 229.609 238.359 229.609 138.4 0 240.781-103.172 240.781-231.172v-1.641c0-127.2-101.559-229.609-238.359-229.609zm604.766 0c-76-3.2-118.366 36.8-144.766 100v-91.953h-121.641v444.766h121.641v-165.625c0-108.8 52.759-160 138.359-160h6.406v-127.187zm-3247.188 8.047v444.766h120.781v-444.766h-120.781zm-891.172 89.609c56.8 0 88.778 40.741 97.578 99.141h-197.578c9.6-60.8 45.6-99.141 100-99.141zm2134.375 0c56.8 0 88.778 40.741 97.578 99.141h-197.578c9.6-60.8 45.6-99.141 100-99.141zm-1603.203 5.547c60.8 0 112.031 50.406 112.031 126.406v1.641c0 76-51.231 126.406-112.031 126.406s-111.953-50.406-111.953-126.406v-1.641c0-77.6 51.153-126.406 111.953-126.406zm3000 1.641c72 0 120.781 58.406 120.781 126.406v1.563c0 68-44.759 125.625-118.359 125.625-72 0-120.781-59.187-120.781-127.187v-1.641c0-68 44.759-124.766 118.359-124.766zM660-853.984c62.667 0 115.031 20.969 157.031 62.969S880-696.649 880-633.984c0 26.934-3.982 53.313-11.953 79.219H657.734v97.656l-74.141-112.344h-1.484l-74.844 113.438v-229.531h-58.828l-70.234 112.344-70.625-112.344h-58.75v130.781H91.953C83.982-580.672 80-607.05 80-633.984c0-62.667 20.969-115.031 62.969-157.031S237.335-853.984 300-853.984c34.667 0 67.651 7.287 98.984 21.953S457.333-796.666 480-770c22.667-26.667 49.682-47.365 81.016-62.031s64.318-21.953 98.984-21.953zM303.359-598.906l74.844 113.438h1.406l73.125-110.703v226.719h58.828l70.547-112.266 70.234 112.266h58.828v-130.703h133.281C835.13-483.371 823.625-465.841 810-447.5c-26 35-61 74.512-105 118.516s-99.699 96.289-167.031 156.953L480-120l-57.969-52.031C354.698-232.698 299-284.984 255-328.984S176-412.496 150-447.5c-13.625-18.341-25.13-35.871-34.453-52.656H303.36z"
     id="path1"
     style="fill:#0f4c81;fill-opacity:1" />
</svg>
