<?xml version="1.0" encoding="UTF-8" standalone="no"?>
<svg
   height="24px"
   viewBox="0 -960 960 960"
   width="24px"
   fill="#000000"
   version="1.1"
   id="svg1"
   sodipodi:docname="logo_new.svg"
   inkscape:version="1.4.1-rc (d9e8dc1fe0, 2025-03-10)"
   xmlns:inkscape="http://www.inkscape.org/namespaces/inkscape"
   xmlns:sodipodi="http://sodipodi.sourceforge.net/DTD/sodipodi-0.dtd"
   xmlns="http://www.w3.org/2000/svg"
   xmlns:svg="http://www.w3.org/2000/svg">
  <defs
     id="defs1" />
  <sodipodi:namedview
     id="namedview1"
     pagecolor="#ffffff"
     bordercolor="#000000"
     borderopacity="0.25"
     inkscape:showpageshadow="2"
     inkscape:pageopacity="0.0"
     inkscape:pagecheckerboard="0"
     inkscape:deskcolor="#d1d1d1"
     inkscape:zoom="15.532508"
     inkscape:cx="12.715268"
     inkscape:cy="14.260415"
     inkscape:window-width="1440"
     inkscape:window-height="863"
     inkscape:window-x="0"
     inkscape:window-y="0"
     inkscape:window-maximized="1"
     inkscape:current-layer="svg1" />
  <path
     id="path1"
     d="M 300 -853.98438 C 237.33333 -853.98438 184.96875 -833.01562 142.96875 -791.01562 C 100.96875 -749.01562 80 -696.65104 80 -633.98438 C 80 -607.05015 83.982063 -580.67132 91.953125 -554.76562 L 302.26562 -554.76562 L 302.26562 -457.10938 L 376.40625 -569.45312 L 377.89062 -569.45312 L 452.73438 -456.01562 L 452.73438 -628.98438 L 452.73438 -685.54688 L 511.5625 -685.54688 L 581.79688 -573.20312 L 652.42188 -685.54688 L 711.17188 -685.54688 L 711.17188 -554.76562 L 868.04688 -554.76562 C 876.01794 -580.67132 880 -607.05015 880 -633.98438 C 880 -696.65104 859.03125 -749.01562 817.03125 -791.01562 C 775.03125 -833.01562 722.66667 -853.98438 660 -853.98438 C 625.33333 -853.98438 592.34896 -846.69792 561.01562 -832.03125 C 529.68229 -817.36458 502.66667 -796.66667 480 -770 C 457.33333 -796.66667 430.31771 -817.36458 398.98438 -832.03125 C 367.65104 -846.69792 334.66667 -853.98438 300 -853.98438 z M 656.64062 -598.90625 L 581.79688 -485.46875 L 580.39062 -485.46875 L 507.26562 -596.17188 L 507.26562 -369.45312 L 448.4375 -369.45312 L 377.89062 -481.71875 L 307.65625 -369.45312 L 248.82812 -369.45312 L 248.82812 -500.15625 L 115.54688 -500.15625 C 124.8695 -483.37121 136.37514 -465.84116 150 -447.5 C 176 -412.5 211 -372.98438 255 -328.98438 C 299 -284.98438 354.69792 -232.69792 422.03125 -172.03125 L 480 -120 L 537.96875 -172.03125 C 605.30208 -232.69792 661 -284.98438 705 -328.98438 C 749 -372.98438 784 -412.5 810 -447.5 C 823.62486 -465.84116 835.1305 -483.37121 844.45312 -500.15625 L 656.64062 -500.15625 L 656.64062 -598.90625 z " />
</svg>
