<?xml version="1.0" encoding="UTF-8"?>
<svg width="158" height="24" fill="#000000" version="1.1" viewBox="0 -960 6320 960" xmlns="http://www.w3.org/2000/svg">
 <path d="m300-853.98c-62.667 0-115.03 20.969-157.03 62.969s-62.969 94.365-62.969 157.03c0 26.934 3.9821 53.313 11.953 79.219h210.31v97.656l74.141-112.34h1.4844l74.844 113.44v-229.53h58.828l70.234 112.34 70.625-112.34h58.75v130.78h156.88c7.9711-25.906 11.953-52.285 11.953-79.219 0-62.667-20.969-115.03-62.969-157.03s-94.365-62.969-157.03-62.969c-34.667 0-67.651 7.2865-98.984 21.953-31.333 14.667-58.349 35.365-81.016 62.031-22.667-26.667-49.682-47.365-81.016-62.031-31.333-14.667-64.318-21.953-98.984-21.953zm356.64 255.08-74.844 113.44h-1.4063l-73.125-110.7v226.72h-58.828l-70.547-112.27-70.234 112.27h-58.828v-130.7h-133.28c9.3226 16.785 20.828 34.315 34.453 52.656 26 35 61 74.516 105 118.52s99.698 96.286 167.03 156.95l57.969 52.031 57.969-52.031c67.333-60.667 123.03-112.95 167.03-156.95s79-83.516 105-118.52c13.625-18.341 25.13-35.871 34.453-52.656h-187.81z"/>
 <text x="1045.5996" y="-192.79938" fill="#ffffff" font-family="'DM Serif Display'" font-size="800px" font-style="italic" stroke-width="0" xml:space="preserve"><tspan x="1045.5996" y="-192.79938" fill="#000000" font-family="GothamSSm" font-size="800px" font-style="normal" font-weight="bold" stroke-width="0" style="font-variant-caps:normal;font-variant-east-asian:normal;font-variant-ligatures:normal;font-variant-numeric:normal">Medimentor</tspan></text>
</svg>
