<svg xmlns="http://www.w3.org/2000/svg" width="185" height="42.938" viewBox="0 0 48.948 11.361" xmlns:v="https://vecta.io/nano"><path d="M3.59 8.151h.992V4.963l1.376 2.084h.026l1.389-2.103v3.208h1.012V3.335H7.294l-1.31 2.084-1.303-2.084H3.59zm7.646.079c.668 0 1.158-.258 1.501-.681l-.575-.509c-.291.271-.542.384-.913.384-.483 0-.827-.258-.926-.761h2.586l.013-.265c0-1.038-.569-1.991-1.786-1.991-1.065 0-1.812.86-1.812 1.912v.013c0 1.125.82 1.898 1.912 1.898zm-.926-2.196c.079-.503.377-.82.827-.82.47 0 .734.337.807.82zm4.968 2.189c.556 0 .906-.265 1.164-.615v.542h1.005V3.13h-1.005v1.839c-.258-.311-.602-.562-1.164-.562-.873 0-1.68.681-1.68 1.898v.013c0 1.23.82 1.905 1.68 1.905zm.251-.86c-.503 0-.926-.417-.926-1.045v-.013c0-.642.423-1.045.926-1.045s.926.417.926 1.045v.013c0 .628-.423 1.045-.926 1.045zm2.944-3.327h1.058v-.9h-1.058zm.033 4.114h.999V4.473h-.999zm2.057 0h1.005V6.094c0-.503.258-.781.661-.781s.635.271.635.781v2.057h1.005V6.094c0-.509.258-.781.661-.781.417 0 .635.271.635.781v2.057h1.005V5.77c0-.9-.463-1.363-1.25-1.363-.509 0-.9.205-1.217.595-.192-.377-.549-.595-1.045-.595-.523 0-.867.284-1.091.595v-.529h-1.005zm8.321.079c.668 0 1.158-.258 1.501-.681l-.575-.509c-.291.271-.542.384-.913.384-.483 0-.827-.258-.926-.761h2.586l.013-.265c0-1.038-.569-1.991-1.786-1.991-1.065 0-1.812.86-1.812 1.912v.013c0 1.125.82 1.898 1.912 1.898zm-.926-2.196c.079-.503.377-.82.827-.82.47 0 .734.337.807.82zm3.453 2.117h1.005V6.094c0-.509.265-.781.688-.781s.661.271.661.781v2.057h1.005V5.776c0-.853-.463-1.369-1.263-1.369-.523 0-.867.284-1.091.595v-.529h-1.005zm5.576.06a1.53 1.53 0 0 0 .807-.205v-.807c-.159.086-.331.126-.516.126-.238 0-.357-.126-.357-.377V5.333h.886v-.86h-.886v-.953h-1.005v.953h-.443v.86h.443v1.779c0 .847.437 1.098 1.072 1.098zm3.347.02c1.144 0 1.991-.853 1.991-1.912v-.013c0-1.052-.84-1.898-1.971-1.898-1.144 0-1.991.86-1.991 1.912v.013c0 1.058.84 1.898 1.971 1.898zm.02-.86c-.595 0-.999-.489-.999-1.052v-.013c0-.562.37-1.032.979-1.032.595 0 .999.483.999 1.045v.013c0 .562-.37 1.039-.979 1.039zm2.798.781h1.005V6.782c0-.9.437-1.323 1.144-1.323h.053V4.407c-.628-.026-.979.304-1.197.827v-.761h-1.005z" fill="#1a1a1a"/></svg>