<svg xmlns="http://www.w3.org/2000/svg" width="158" height="24" fill="#000000" viewBox="0 -960 6320 960" xmlns:v="https://vecta.io/nano"><path d="M300-853.98c-62.667 0-115.03 20.969-157.03 62.969s-62.969 94.365-62.969 157.03c0 26.934 3.982 53.313 11.953 79.219h210.31v97.656l74.141-112.34h1.484l74.844 113.44v-229.53h58.828l70.234 112.34 70.625-112.34h58.75v130.78h156.88c7.971-25.906 11.953-52.285 11.953-79.219 0-62.667-20.969-115.03-62.969-157.03s-94.365-62.969-157.03-62.969c-34.667 0-67.651 7.287-98.984 21.953s-58.349 35.365-81.016 62.031c-22.667-26.667-49.682-47.365-81.016-62.031s-64.318-21.953-98.984-21.953zM656.64-598.9l-74.844 113.44h-1.406l-73.125-110.7v226.72h-58.828L377.89-481.71l-70.234 112.27h-58.828v-130.7h-133.28c9.323 16.785 20.828 34.315 34.453 52.656 26 35 61 74.516 105 118.52s99.698 96.286 167.03 156.95L480-119.983l57.969-52.031c67.333-60.667 123.03-112.95 167.03-156.95s79-83.516 105-118.52c13.625-18.341 25.13-35.871 34.453-52.656h-187.81zM1120-192.799h120v-385.6l166.4 252h3.2l168-254.4v388H1700v-582.4h-132l-158.4 252-157.6-252h-132zm924.799 9.6c80.8 0 140-31.2 181.6-82.4l-69.6-61.6c-35.2 32.8-65.6 46.4-110.4 46.4-58.4 0-100-31.2-112-92h312.8c.8-12 1.6-22.4 1.6-32 0-125.6-68.8-240.8-216-240.8-128.8 0-219.2 104-219.2 231.2v1.6c0 136 99.2 229.6 231.2 229.6zm-112-265.6c9.6-60.8 45.6-99.2 100-99.2 56.8 0 88.8 40.8 97.6 99.2zm600.799 264.8c67.2 0 109.6-32 140.8-74.4v65.6h121.6v-607.2h-121.6v222.4c-31.2-37.6-72.8-68-140.8-68-105.6 0-203.2 82.4-203.2 229.6v1.6c0 148.8 99.2 230.4 203.2 230.4zm30.4-104c-60.8 0-112-50.4-112-126.4v-1.6c0-77.6 51.2-126.4 112-126.4s112 50.4 112 126.4v1.6c0 76-51.2 126.4-112 126.4zm356-402.4h128v-108.8h-128zm4 497.6h120.8v-444.8h-120.8zm248.798 0h121.6v-248.8c0-60.8 31.2-94.4 80-94.4s76.8 32.8 76.8 94.4v248.8h121.6v-248.8c0-61.6 31.2-94.4 80-94.4 50.4 0 76.8 32.8 76.8 94.4v248.8h121.6v-288c0-108.8-56-164.8-151.2-164.8-61.6 0-108.8 24.8-147.2 72-23.2-45.6-66.4-72-126.4-72-63.2 0-104.8 34.4-132 72v-64h-121.6zm1006.399 9.6c80.8 0 140-31.2 181.6-82.4l-69.6-61.6c-35.2 32.8-65.6 46.4-110.4 46.4-58.4 0-100-31.2-112-92h312.8c.8-12 1.6-22.4 1.6-32 0-125.6-68.8-240.8-216-240.8-128.8 0-219.2 104-219.2 231.2v1.6c0 136 99.2 229.6 231.2 229.6zm-112-265.6c9.6-60.8 45.6-99.2 100-99.2 56.8 0 88.8 40.8 97.6 99.2zm417.599 256h121.6v-248.8c0-61.6 32-94.4 83.2-94.4s80 32.8 80 94.4v248.8h121.6v-287.2c0-103.2-56-165.6-152.8-165.6-63.2 0-104.8 34.4-132 72v-64h-121.6zm674.399 7.2c41.6 0 71.2-9.6 97.6-24.8v-97.6c-19.2 10.4-40 15.2-62.4 15.2-28.8 0-43.2-15.2-43.2-45.6v-195.2h107.2v-104h-107.2v-115.2h-121.6v115.2h-53.6v104h53.6v215.2c0 102.4 52.8 132.8 129.6 132.8zm404.799 2.4c138.4 0 240.8-103.2 240.8-231.2v-1.6c0-127.2-101.6-229.6-238.4-229.6-138.4 0-240.8 104-240.8 231.2v1.6c0 128 101.6 229.6 238.4 229.6zm2.4-104c-72 0-120.8-59.2-120.8-127.2v-1.6c0-68 44.8-124.8 118.4-124.8 72 0 120.8 58.4 120.8 126.4v1.6c0 68-44.8 125.6-118.4 125.6zm338.399 94.4h121.6v-165.6c0-108.8 52.8-160 138.4-160h6.4v-127.2c-76-3.2-118.4 36.8-144.8 100v-92h-121.6z"/></svg>